:FULLY-SPECIFIED
:FORCE-ALL-JOINTS-BE-3DOF
:DEGREES
510
root 5.99317 15.677 -5.26604 -70.3519 68.0223 -76.0077
lfemur -29.5903 -12.0729 -22.284
ltibia 60.6202 0 0
lfoot -28.1963 -3.19327 0
ltoes 6.92315 0 0
rfemur -50.6839 0.645833 4.08427
rtibia 69.5819 0 0
rfoot 6.51307 5.92434 0
rtoes -27.2942 0 0
lowerback 7.86507 0.316414 -0.173941
upperback 2.67018 0.844647 3.49169
thorax -1.7334 0.539895 3.61876
lowerneck -6.74656 -12.1019 -3.56641
upperneck 9.15317 -16.284 3.91792
head 4.80487 -7.88249 0.647153
lclavicle 2.72008e-14 1.96361e-14 0
lhumerus -46.675 -27.2078 112.186
lradius 57.618 0 0
lwrist 12.1236 0 0
lhand -5.97644 -1.94518 0
lfingers 7.12502 0 0
lthumb 19.8118 26.5067 0
rclavicle 2.72008e-14 1.96361e-14 0
rhumerus -22.6764 18.1681 -92.3514
rradius 102.595 0 0
rwrist -6.16896 0 0
rhand -20.342 -22.6688 0
rfingers 7.12502 0 0
rthumb 6.00513 -772.366 0
511
root 6.06006 15.6289 -5.20977 -74.8934 67.3121 -80.4347
lfemur -29.6723 -11.8352 -22.2143
ltibia 61.5389 0 0
lfoot -28.5269 -3.09577 0
ltoes 6.22835 0 0
rfemur -50.5074 0.502028 3.67683
rtibia 68.9195 0 0
rfoot 6.15935 5.91953 0
rtoes -27.9766 0 0
lowerback 8.07626 0.365772 -0.116087
upperback 2.82471 0.937615 3.66132
thorax -1.69834 0.592197 3.75402
lowerneck -6.63231 -12.2961 -3.70743
upperneck 9.31346 -16.5484 4.04445
head 4.86246 -8.00615 0.681559
lclavicle 2.97118e-14 2.12033e-14 0
lhumerus -46.5414 -26.9438 112.088
lradius 57.726 0 0
lwrist 12.6197 0 0
lhand -6.66277 -2.08854 0
lfingers 7.12502 0 0
lthumb 19.152 26.4254 0
rclavicle 2.97118e-14 2.12033e-14 0
rhumerus -21.2762 17.8514 -92.1083
rradius 104.109 0 0
rwrist -8.05958 0 0
rhand -20.8059 -22.7905 0
rfingers 7.12502 0 0
rthumb 5.55732 -772.497 0
512
root 6.12695 15.5808 -5.1535 -79.4349 66.602 -84.8617
lfemur -29.7543 -11.5975 -22.1446
ltibia 62.4576 0 0
lfoot -28.8576 -2.99827 0
ltoes 5.53356 0 0
rfemur -50.3309 0.358223 3.26939
rtibia 68.2572 0 0
rfoot 5.80564 5.91472 0
rtoes -28.6591 0 0
lowerback 8.28744 0.41513 -0.058232
upperback 2.97923 1.03058 3.83095
thorax -1.66329 0.6445 3.88927
lowerneck -6.51807 -12.4904 -3.84846
upperneck 9.47374 -16.8129 4.17099
head 4.92005 -8.12981 0.715964
lclavicle 3.22228e-14 2.27705e-14 0
lhumerus -46.4078 -26.6797 111.99
lradius 57.834 0 0
lwrist 13.1157 0 0
lhand -7.3491 -2.23191 0
lfingers 7.12502 0 0
lthumb 18.4921 26.3442 0
rclavicle 3.22228e-14 2.27705e-14 0
rhumerus -19.876 17.5348 -91.8652
rradius 105.622 0 0
rwrist -9.95021 0 0
rhand -21.2698 -22.9123 0
rfingers 7.12502 0 0
rthumb 5.1095 -772.628 0
513
root 6.19384 15.5327 -5.09723 -83.9764 65.8918 -89.2886
lfemur -29.8363 -11.3598 -22.0749
ltibia 63.3763 0 0
lfoot -29.1883 -2.90077 0
ltoes 4.83876 0 0
rfemur -50.1544 0.214418 2.86195
rtibia 67.5949 0 0
rfoot 5.45193 5.90991 0
rtoes -29.3416 0 0
lowerback 8.49863 0.464488 -0.000377317
upperback 3.13375 1.12355 4.00058
thorax -1.62823 0.696802 4.02452
lowerneck -6.40383 -12.6846 -3.98948
upperneck 9.63403 -17.0774 4.29753
head 4.97765 -8.25347 0.750369
lclavicle 3.47338e-14 2.43378e-14 0
lhumerus -46.2742 -26.4156 111.893
lradius 57.942 0 0
lwrist 13.6118 0 0
lhand -8.03543 -2.37527 0
lfingers 7.12502 0 0
lthumb 17.8323 26.2629 0
rclavicle 3.47338e-14 2.43378e-14 0
rhumerus -18.4758 17.2181 -91.6221
rradius 107.135 0 0
rwrist -11.8408 0 0
rhand -21.7337 -23.0341 0
rfingers 7.12502 0 0
rthumb 4.66169 -772.76 0
514
root 6.26072 15.4846 -5.04096 -88.518 65.1817 -93.7156
lfemur -29.9182 -11.1221 -22.0051
ltibia 64.2951 0 0
lfoot -29.5189 -2.80327 0
ltoes 4.14396 0 0
rfemur -49.978 0.0706124 2.45452
rtibia 66.9326 0 0
rfoot 5.09821 5.90509 0
rtoes -30.024 0 0
lowerback 8.70981 0.513845 0.0574773
upperback 3.28828 1.21652 4.17021
thorax -1.59318 0.749104 4.15978
lowerneck -6.28959 -12.8788 -4.13051
upperneck 9.79431 -17.3418 4.42406
head 5.03524 -8.37712 0.784774
lclavicle 3.72449e-14 2.5905e-14 0
lhumerus -46.1407 -26.1516 111.795
lradius 58.05 0 0
lwrist 14.1078 0 0
lhand -8.72177 -2.51864 0
lfingers 7.12502 0 0
lthumb 17.1725 26.1817 0
rclavicle 3.72449e-14 2.5905e-14 0
rhumerus -17.0755 16.9015 -91.379
rradius 108.648 0 0
rwrist -13.7315 0 0
rhand -22.1976 -23.1558 0
rfingers 7.12502 0 0
rthumb 4.21387 -772.891 0
515
root 6.32761 15.4365 -4.98469 -93.0595 64.4715 -98.1426
lfemur -30.0002 -10.8844 -21.9354
ltibia 65.2138 0 0
lfoot -29.8496 -2.70577 0
ltoes 3.44916 0 0
rfemur -49.8015 -0.0731927 2.04708
rtibia 66.2703 0 0
rfoot 4.7445 5.90028 0
rtoes -30.7065 0 0
lowerback 8.921 0.563203 0.115332
upperback 3.4428 1.30949 4.33983
thorax -1.55812 0.801406 4.29503
lowerneck -6.17535 -13.0731 -4.27153
upperneck 9.9546 -17.6063 4.5506
head 5.09284 -8.50078 0.81918
lclavicle 3.97559e-14 2.74723e-14 0
lhumerus -46.0071 -25.8875 111.698
lradius 58.158 0 0
lwrist 14.6038 0 0
lhand -9.4081 -2.662 0
lfingers 7.12502 0 0
lthumb 16.5126 26.1004 0
rclavicle 3.97559e-14 2.74723e-14 0
rhumerus -15.6753 16.5848 -91.1359
rradius 110.161 0 0
rwrist -15.6221 0 0
rhand -22.6615 -23.2776 0
rfingers 7.12502 0 0
rthumb 3.76606 -773.023 0
516
root 6.3945 15.3884 -4.92842 -97.601 63.7614 -102.57
lfemur -30.0822 -10.6467 -21.8657
ltibia 66.1325 0 0
lfoot -30.1803 -2.60827 0
ltoes 2.75437 0 0
rfemur -49.625 -0.216998 1.63964
rtibia 65.608 0 0
rfoot 4.39079 5.89547 0
rtoes -31.389 0 0
lowerback 9.13218 0.612561 0.173187
upperback 3.59733 1.40246 4.50946
thorax -1.52307 0.853709 4.43028
lowerneck -6.06111 -13.2673 -4.41256
upperneck 10.1149 -17.8708 4.67714
head 5.15043 -8.62444 0.853585
lclavicle 4.22669e-14 2.90395e-14 0
lhumerus -45.8735 -25.6234 111.6
lradius 58.266 0 0
lwrist 15.0999 0 0
lhand -10.0944 -2.80536 0
lfingers 7.12502 0 0
lthumb 15.8528 26.0192 0
rclavicle 4.22669e-14 2.90395e-14 0
rhumerus -14.2751 16.2682 -90.8928
rradius 111.675 0 0
rwrist -17.5127 0 0
rhand -23.1254 -23.3994 0
rfingers 7.12502 0 0
rthumb 3.31824 -773.154 0
517
root 6.46139 15.3403 -4.87215 -102.142 63.0512 -106.997
lfemur -30.1642 -10.409 -21.796
ltibia 67.0512 0 0
lfoot -30.5109 -2.51077 0
ltoes 2.05957 0 0
rfemur -49.4485 -0.360803 1.2322
rtibia 64.9456 0 0
rfoot 4.03707 5.89066 0
rtoes -32.0714 0 0
lowerback 9.34337 0.661919 0.231041
upperback 3.75185 1.49542 4.67909
thorax -1.48801 0.906011 4.56554
lowerneck -5.94686 -13.4615 -4.55358
upperneck 10.2752 -18.1352 4.80367
head 5.20802 -8.7481 0.88799
lclavicle 4.47779e-14 3.06068e-14 0
lhumerus -45.7399 -25.3594 111.502
lradius 58.374 0 0
lwrist 15.5959 0 0
lhand -10.7808 -2.94873 0
lfingers 7.12502 0 0
lthumb 15.193 25.9379 0
rclavicle 4.47779e-14 3.06068e-14 0
rhumerus -12.8749 15.9515 -90.6497
rradius 113.188 0 0
rwrist -19.4033 0 0
rhand -23.5893 -23.5211 0
rfingers 7.12502 0 0
rthumb 2.87043 -773.285 0
518
root 6.52827 15.2922 -4.81588 -106.684 62.341 -111.423
lfemur -30.2462 -10.1713 -21.7263
ltibia 67.9699 0 0
lfoot -30.8416 -2.41328 0
ltoes 1.36477 0 0
rfemur -49.272 -0.504608 0.824767
rtibia 64.2833 0 0
rfoot 3.68336 5.88585 0
rtoes -32.7539 0 0
lowerback 9.55455 0.711276 0.288896
upperback 3.90637 1.58839 4.84872
thorax -1.45296 0.958313 4.70079
lowerneck -5.83262 -13.6558 -4.69461
upperneck 10.4354 -18.3997 4.93021
head 5.26562 -8.87176 0.922396
lclavicle 4.72889e-14 3.2174e-14 0
lhumerus -45.6064 -25.0953 111.405
lradius 58.482 0 0
lwrist 16.092 0 0
lhand -11.4671 -3.09209 0
lfingers 7.12502 0 0
lthumb 14.5331 25.8567 0
rclavicle 4.72889e-14 3.2174e-14 0
rhumerus -11.4747 15.6349 -90.4066
rradius 114.701 0 0
rwrist -21.294 0 0
rhand -24.0532 -23.6429 0
rfingers 7.12502 0 0
rthumb 2.42261 -773.417 0
519
root 6.59516 15.2441 -4.75961 -111.225 61.6309 -115.85
lfemur -30.3282 -9.93355 -21.6566
ltibia 68.8886 0 0
lfoot -31.1723 -2.31578 0
ltoes 0.669976 0 0
rfemur -49.0956 -0.648413 0.41733
rtibia 63.621 0 0
rfoot 3.32964 5.88104 0
rtoes -33.4364 0 0
lowerback 9.76573 0.760634 0.34675
upperback 4.0609 1.68136 5.01835
thorax -1.4179 1.01062 4.83605
lowerneck -5.71838 -13.85 -4.83563
upperneck 10.5957 -18.6641 5.05674
head 5.32321 -8.99542 0.956801
lclavicle 4.98e-14 3.37413e-14 0
lhumerus -45.4728 -24.8312 111.307
lradius 58.59 0 0
lwrist 16.588 0 0
lhand -12.1534 -3.23545 0
lfingers 7.12502 0 0
lthumb 13.8733 25.7754 0
rclavicle 4.98e-14 3.37413e-14 0
rhumerus -10.0745 15.3182 -90.1634
rradius 116.214 0 0
rwrist -23.1846 0 0
rhand -24.5171 -23.7646 0
rfingers 7.12502 0 0
rthumb 1.97479 -773.548 0
520
root 6.66205 15.196 -4.70334 -115.767 60.9207 -120.277
lfemur -30.4102 -9.69584 -21.5869
ltibia 69.8073 0 0
lfoot -31.5029 -2.21828 0
ltoes -0.024821 0 0
rfemur -48.9191 -0.792218 0.00989244
rtibia 62.9587 0 0
rfoot 2.97593 5.87622 0
rtoes -34.1188 0 0
lowerback 9.97692 0.809992 0.404605
upperback 4.21542 1.77433 5.18797
thorax -1.38285 1.06292 4.9713
lowerneck -5.60414 -14.0442 -4.97666
upperneck 10.756 -18.9286 5.18328
head 5.38081 -9.11908 0.991206
lclavicle 5.2311e-14 3.53085e-14 0
lhumerus -45.3392 -24.5672 111.209
lradius 58.698 0 0
lwrist 17.084 0 0
lhand -12.8398 -3.37882 0
lfingers 7.12502 0 0
lthumb 13.2135 25.6942 0
rclavicle 5.2311e-14 3.53085e-14 0
rhumerus -8.6743 15.0016 -89.9203
rradius 117.727 0 0
rwrist -25.0752 0 0
rhand -24.981 -23.8864 0
rfingers 7.12502 0 0
rthumb 1.52698 -773.679 0
521
root 6.72893 15.1479 -4.64707 -120.308 60.2106 -124.704
lfemur -30.4922 -9.45813 -21.5172
ltibia 70.726 0 0
lfoot -31.8336 -2.12078 0
ltoes -0.719618 0 0
rfemur -48.7426 -0.936023 -0.397545
rtibia 62.2964 0 0
rfoot 2.62222 5.87141 0
rtoes -34.8013 0 0
lowerback 10.1881 0.859349 0.46246
upperback 4.36994 1.8673 5.3576
thorax -1.34779 1.11522 5.10655
lowerneck -5.4899 -14.2385 -5.11768
upperneck 10.9163 -19.1931 5.30982
head 5.4384 -9.24274 1.02561
lclavicle 5.4822e-14 3.68758e-14 0
lhumerus -45.2057 -24.3031 111.112
lradius 58.806 0 0
lwrist 17.5801 0 0
lhand -13.5261 -3.52218 0
lfingers 7.12502 0 0
lthumb 12.5536 25.6129 0
rclavicle 5.4822e-14 3.68758e-14 0
rhumerus -7.2741 14.6849 -89.6772
rradius 119.24 0 0
rwrist -26.9659 0 0
rhand -25.4449 -24.0082 0
rfingers 7.12502 0 0
rthumb 1.07916 -773.811 0
